<?xml version="1.0" encoding="UTF-8"?>
<svg id="Pushups_Liegestuetze" xmlns="http://www.w3.org/2000/svg" viewBox="0 0 198.43 198.43">
  <defs>
    <style>
      .cls-1 {
        fill: none;
      }

      .cls-2 {
        fill: #e62844;
      }

      .cls-3 {
        fill: #fff;
      }
    </style>
  </defs>
  <g id="Liegestuetze_rot_auf_weiss">
    <path id="fläche" class="cls-3" d="M52.43,28.35h93.56c13.29,0,24.09,10.79,24.09,24.09v93.56c0,13.29-10.79,24.08-24.08,24.08H52.43c-13.29,0-24.08-10.79-24.08-24.08V52.43c0-13.29,10.79-24.09,24.09-24.09Z"/>
    <path id="rahmen" class="cls-2" d="M145.99,29.35c12.73,0,23.09,10.36,23.09,23.08v93.56c0,12.73-10.36,23.09-23.09,23.09H52.43c-12.73,0-23.09-10.36-23.09-23.09V52.43c0-12.73,10.36-23.08,23.09-23.08h93.56M145.99,28.35H52.43c-13.3,0-24.09,10.78-24.09,24.08v93.56c0,13.3,10.78,24.09,24.09,24.09h93.56c13.31,0,24.09-10.78,24.09-24.09V52.43c0-13.3-10.78-24.08-24.09-24.08h0Z"/>
    <g>
      <polygon class="cls-1" points="88.45 102.54 98.36 103.65 98.47 103.65 98.36 103.65 88.45 102.54"/>
      <path class="cls-1" d="M127.96,122.97c-.01-.06-.02-.11-.02-.13l-1.24-5.31,1.24,5.31s0,.06.02.13Z"/>
      <polygon class="cls-1" points="135.25 114.15 135.25 114.15 136.01 106.97 135.25 114.15"/>
      <path class="cls-2" d="M106.94,117.29c.2,0,.4-.01.62-.02,4.67-.12,14.05-.27,18.17.16l-2.72-11.6-.1-.44.29-.35,5.74-6.99c-1.4.27-3.66.8-6.21,1.82-.92.37-14.66,2.59-20.82,3.57l4.96,13.65.07.19Z"/>
      <path class="cls-2" d="M136.9,102.94c.36,1.18.88,2.16,1.51,2.76.1.09.21.18.31.25.05.03.1.06.15.09.07.04.14.09.22.13.05.03.11.05.16.07.07.03.15.06.23.09.06.02.12.04.17.05.08.02.16.04.24.06.06.01.12.02.18.03.08.01.17.02.26.03.06,0,.12,0,.18.01.09,0,.18,0,.28,0,.06,0,.12,0,.18,0,.1,0,.21-.02.32-.03.05,0,.1-.01.15-.02.16-.02.32-.06.48-.09.11-.02.21-.05.32-.08.26-.07.52-.16.78-.26.5-.19,1-.43,1.48-.71,1.16-.66,2.26-1.5,3.1-2.38,2.71-2.81,2.86-5,.51-7.34-.32-.32-.67-.61-1.03-.89-.12-.09-.24-.19-.37-.27-.09-.06-.18-.12-.26-.18-.18-.12-.37-.23-.56-.34-.07-.04-.15-.09-.22-.13-.26-.14-.53-.28-.8-.4-.04-.02-.09-.03-.13-.05-.23-.1-.46-.19-.69-.27-.09-.03-.18-.06-.27-.09-.19-.06-.38-.11-.56-.16-.1-.02-.2-.05-.29-.07-.19-.04-.38-.07-.57-.1-.09-.01-.17-.03-.26-.03-.27-.03-.54-.04-.81-.04-1.44.02-2.65.48-3.47,1.34-.97,1.01-1.52,3.03-1.47,5.4.01.69.08,1.36.18,2.01.09.57.22,1.11.38,1.62Z"/>
      <path class="cls-2" d="M169.02,138.45h-27.75l-6.88-16.14.45-4.26.41-3.89h0s.76-7.18.76-7.18l-2.96-4.44-1.02-1.52h0s-1.94-2.91-1.94-2.91l-6.19,7.53,2.79,11.9,1.24,5.31s0,.06.02.13c.03.14.1.37.22.69.04.12.09.25.14.39.1.28.22.6.36.95.07.18.14.36.21.55.15.38.31.8.48,1.23.09.22.17.44.26.67.34.85.7,1.76,1.07,2.68.13.32.26.64.39.96.2.5.41,1,.6,1.49.3.73.59,1.45.87,2.12.09.22.18.44.27.66.26.64.5,1.22.71,1.73.23.56.42,1.02.56,1.36H41.67l29.42-11.53,28.57-7.31,4.45-1.36-6.28-.58-28.32,7.24-28.31,13.52v.02h-2.31l30.28-14.46,28.57-7.31,8.19.76-4.96-13.67-2.52-.11h-.11s-9.91-1.1-9.91-1.1c0,0-1.79,1.02-4.4,2.51-.58.33-1.2.68-1.85,1.05-1.95,1.11-4.16,2.38-6.35,3.63-2.55,1.46-5.07,2.91-7.09,4.09-.58.34-1.12.65-1.6.94-.73.43-1.34.79-1.81,1.07-.46.28-.78.48-.9.57-.88.64-3.27,1.74-6.13,2.96-2.58,1.11-5.56,2.32-8.19,3.42-.29.12-.58.24-.86.36-.57.24-1.11.47-1.63.69-.26.11-.51.22-.75.32-.73.32-1.38.61-1.93.87-.37.17-.69.33-.95.47-.27.14-.48.26-.63.37-.15.1-.24.19-.26.25l-4.45,12.32h-9.39v1h139.76v-1Z"/>
    </g>
  </g>
</svg>